# xmcd
#
# Track frame offsets:
# 150
# 2093
# 15725
# 28943
# 44766
# 60004
# 76419
# 92582
# 107586
# 126800
# 143075
#
# Disc length: 2145 seconds
#
#
# Revision: 1
# Processed by: cddbd v1.5.2PL0 Copyright (c) Steve Scherf et al.
# Submitted via: FreeRIP 2.951 
#
DISCID=83085f0b
DTITLE=Son of Dave - O3
DYEAR=2008
DGENRE=Blues
TTITLE0=Your Mercedes Intro
TTITLE1=Old Times Were Good Times
TTITLE2=Nike Town
TTITLE3=Lover Not A Fighter
TTITLE4=Low Rider
TTITLE5=Hellhound
TTITLE6=I'm Not Your Friend No More
TTITLE7=Your Mercedes
TTITLE8=I Just Wanna Get High With You
TTITLE9=Squat That Rabbit
TTITLE10=Roller Boogie
EXTD=
EXTT0=
EXTT1=
EXTT2=
EXTT3=
EXTT4=
EXTT5=
EXTT6=
EXTT7=
EXTT8=
EXTT9=
EXTT10=
PLAYORDER=
